<svg width="847" height="295" viewBox="0 0 847 295" fill="none" xmlns="http://www.w3.org/2000/svg">
<path d="M4 135V56C12.6825 55.8407 21.0586 56.024 30 56.5313V84H60V59.3463C153.386 71.8486 238.551 117.527 169 175C127.8 142.2 41.8333 134.667 4 135Z" fill="#F58706"/>
<path d="M4 215V294C113 296 252.5 244 169 175C127.8 207.8 41.8333 215.333 4 215Z" fill="#237AFF"/>
<path d="M30 30H60V60H30V30Z" fill="#F58706"/>
<path d="M0 0H30V30H0V0Z" fill="#F58706"/>
<path d="M306.04 121.8V231H346.756C369.064 231 382.792 219.3 382.792 198.084C382.792 184.2 376.708 175.62 366.412 171.408C373.276 167.82 377.176 160.176 377.176 151.284C377.176 131.472 364.54 121.8 345.976 121.8H306.04ZM344.416 140.52C352.996 140.52 357.676 143.484 357.676 152.376C357.676 161.268 352.996 164.232 344.884 164.232H326.32V140.52H344.416ZM344.884 182.952C357.52 182.952 362.512 188.256 362.512 197.616C362.512 206.976 357.52 212.28 344.884 212.28H326.32V182.952H344.884ZM470.468 189.972C470.468 172.812 460.016 151.128 433.808 151.128C406.82 151.128 396.056 173.124 396.056 191.688C396.056 210.252 406.82 232.248 433.808 232.248C452.84 232.248 463.448 223.2 469.532 209.316L453.932 203.544C449.252 211.656 443.792 215.712 434.9 215.712C422.888 215.712 416.804 206.664 416.336 197.928H470.468V189.972ZM433.808 167.664C444.104 167.664 448.94 174.84 450.656 182.64H416.804C418.208 175.152 423.98 167.664 433.808 167.664ZM487.59 120.552V231H506.934V120.552H487.59ZM571.706 213.84C569.054 215.244 566.87 215.712 564.218 215.712C557.666 215.712 553.922 212.592 553.922 202.92V168.912H574.67V152.376H553.922V120.552L534.578 132.72V152.376H522.41V168.912H534.578V203.232C534.578 222.732 545.654 232.248 563.438 232.248C567.65 232.248 571.862 231.468 576.23 229.44L571.706 213.84ZM661.05 189.972C661.05 172.812 650.598 151.128 624.39 151.128C597.402 151.128 586.638 173.124 586.638 191.688C586.638 210.252 597.402 232.248 624.39 232.248C643.422 232.248 654.03 223.2 660.114 209.316L644.514 203.544C639.834 211.656 634.374 215.712 625.482 215.712C613.47 215.712 607.386 206.664 606.918 197.928H661.05V189.972ZM624.39 167.664C634.686 167.664 639.522 174.84 641.238 182.64H607.386C608.79 175.152 614.562 167.664 624.39 167.664ZM733.457 202.764C729.401 211.032 723.785 215.712 715.049 215.712C702.881 215.712 696.953 205.572 696.953 191.688C696.953 177.804 702.881 167.664 715.049 167.664C723.785 167.664 729.401 172.344 733.457 180.612L750.773 173.592C744.845 158.772 732.521 151.128 715.049 151.128C689.465 151.128 676.673 169.536 676.673 191.688C676.673 213.84 689.465 232.248 715.049 232.248C732.521 232.248 744.845 224.604 750.773 209.784L733.457 202.764ZM766.386 120.552V231H785.73V197.772C785.73 176.556 795.246 167.664 804.138 167.664C812.094 167.664 815.838 172.188 815.838 181.704V231H835.182V174.84C835.182 158.772 825.51 151.128 810.69 151.128C799.302 151.128 790.722 157.056 785.73 165.012V120.552H766.386Z" fill="#1D2E47"/>
</svg>
